<?xml version="1.0" encoding="UTF-8"?><svg id="Layer_1" xmlns="http://www.w3.org/2000/svg" viewBox="0 0 683 675"><defs><style>.cls-1{fill:#ffc0b6;}.cls-2{fill:#49c6f7;}.cls-3{fill:#f76949;}.cls-4{fill:#f3c30e;}</style></defs><circle class="cls-4" cx="341.5" cy="337.5" r="328.5"/><g><path class="cls-3" d="M421.17,218.18c-25.23,0-48.99,7.92-68.71,22.91-28.96,21.92-45.55,55.2-45.55,91.32,0,10.01-8.11,18.11-18.11,18.11s-18.11-8.1-18.11-18.11c0-38.84,14.75-75.03,40.81-102.73-15.29-7.42-32.08-11.5-49.68-11.5-63.09,0-114.43,51.24-114.43,114.24,0,158.88,163.54,213.12,193.38,221.68,29.99-8.54,194.79-62.77,194.79-221.68,0-63-51.33-114.24-114.41-114.24Zm78.03,132.34c-10.01,0-18.11-8.1-18.11-18.11,0-33.05-26.87-59.92-59.92-59.92-10.01,0-18.11-8.1-18.11-18.11s8.1-18.11,18.11-18.11c53.01,0,96.13,43.12,96.13,96.13,0,10.01-8.1,18.11-18.11,18.11Z"/><path class="cls-2" d="M355.71,181.88c16.1,.85,31.98-5.34,43.73-17.19,11.81-11.81,17.95-27.92,17.2-44.38-16.02-.58-32.06,5.32-43.83,17.19-.02,.02-.02,.04-.04,.05-10.91,10.91-17.16,25.97-17.16,41.34,0,.97,.03,1.96,.09,2.99Z"/><path class="cls-2" d="M275.43,164.7c11.74,11.86,27.78,18.14,43.89,17.17,.06-1.01,.09-2,.09-2.97,0-15.36-6.25-30.43-17.15-41.34l-.05-.05c-11.74-11.86-27.63-18.09-43.91-17.17-.83,16.2,5.28,32.41,17.13,44.36Z"/><path d="M431.93,182.52c17.28-21.52,24.52-49.7,19.25-77.69-2.07-9.58-9.67-17.04-19.43-19.01-30.69-6.12-62.34,3.7-84.64,26.19-3.59,3.6-6.64,7.64-9.59,11.74-2.95-4.12-6.02-8.17-9.62-11.78-22.27-22.45-53.92-32.18-85.11-26.1-9.49,2.07-16.93,9.53-19,19.31-5.42,27.74,2.01,56.22,19.79,78.01-74.47,9.05-132.38,72.45-132.38,149.23,0,199.6,222.95,257.45,225.2,258.02,2.86,.7,5.86,.71,8.73,0,2.26-.57,226.67-58.4,226.67-258.02,0-79.33-61.84-144.35-139.87-149.9Zm-91.13,371.58c-29.85-8.56-193.38-62.8-193.38-221.68,0-63,51.34-114.24,114.43-114.24,17.6,0,34.39,4.08,49.68,11.5-26.06,27.7-40.81,63.89-40.81,102.73,0,10.01,8.11,18.11,18.11,18.11s18.11-8.1,18.11-18.11c0-36.12,16.58-69.4,45.55-91.32,19.71-14.99,43.48-22.91,68.71-22.91,63.09,0,114.41,51.24,114.41,114.24,0,158.92-164.8,213.14-194.79,221.68Zm-38.54-416.54c10.9,10.91,17.15,25.97,17.15,41.34,0,.97-.03,1.96-.09,2.97-16.12,.97-32.15-5.3-43.89-17.17-11.85-11.95-17.96-28.17-17.13-44.36,16.28-.92,32.17,5.3,43.91,17.17l.05,.05Zm70.52,0s.02-.04,.04-.05c11.78-11.86,27.81-17.77,43.83-17.19,.74,16.46-5.39,32.57-17.2,44.38-11.76,11.85-27.64,18.03-43.73,17.19-.06-1.03-.09-2.02-.09-2.99,0-15.36,6.25-30.43,17.16-41.34Z"/><path class="cls-1" d="M421.17,236.29c-10.01,0-18.11,8.1-18.11,18.11s8.1,18.11,18.11,18.11c33.05,0,59.92,26.87,59.92,59.92,0,10.01,8.1,18.11,18.11,18.11s18.11-8.1,18.11-18.11c0-53.01-43.12-96.13-96.13-96.13Z"/></g></svg>